<svg width="64" height="64" viewBox="0 0 64 64" xmlns="http://www.w3.org/2000/svg">
  <defs>
    <linearGradient id="primaryGradient" x1="0%" y1="0%" x2="100%" y2="100%">
      <stop offset="0%" style="stop-color:#ff6b35"/>
      <stop offset="100%" style="stop-color:#f7931e"/>
    </linearGradient>
    <linearGradient id="accentGradient" x1="0%" y1="0%" x2="100%" y2="100%">
      <stop offset="0%" style="stop-color:#667eea"/>
      <stop offset="100%" style="stop-color:#764ba2"/>
    </linearGradient>
  </defs>
  
  <!-- 背景圆形 -->
  <circle cx="32" cy="32" r="28" fill="url(#primaryGradient)" opacity="0.1"/>
  
  <!-- 主要时钟圆环 -->
  <circle cx="32" cy="32" r="24" fill="none" stroke="url(#primaryGradient)" stroke-width="3"/>
  
  <!-- 交织的时间线 -->
  <path d="M 12 32 Q 20 20, 32 32 Q 44 44, 52 32" 
        fill="none" 
        stroke="url(#primaryGradient)" 
        stroke-width="2.5" 
        stroke-linecap="round"/>
  
  <path d="M 32 12 Q 20 20, 32 32 Q 44 20, 32 12" 
        fill="none" 
        stroke="url(#accentGradient)" 
        stroke-width="2" 
        stroke-linecap="round" 
        opacity="0.8"/>
  
  <!-- 中心点 -->
  <circle cx="32" cy="32" r="3" fill="url(#primaryGradient)"/>
  
  <!-- 时钟刻度点 -->
  <circle cx="32" cy="14" r="2" fill="url(#primaryGradient)" opacity="0.6"/>
  <circle cx="50" cy="32" r="2" fill="url(#primaryGradient)" opacity="0.6"/>
  <circle cx="32" cy="50" r="2" fill="url(#primaryGradient)" opacity="0.6"/>
  <circle cx="14" cy="32" r="2" fill="url(#primaryGradient)" opacity="0.6"/>
  
  <!-- 数据节点 -->
  <circle cx="24" cy="20" r="1.5" fill="url(#accentGradient)"/>
  <circle cx="40" cy="20" r="1.5" fill="url(#accentGradient)"/>
  <circle cx="40" cy="44" r="1.5" fill="url(#accentGradient)"/>
  <circle cx="24" cy="44" r="1.5" fill="url(#accentGradient)"/>
</svg>